<svg width="24" height="23" viewBox="0 0 24 23" fill="none" xmlns="http://www.w3.org/2000/svg">
<g clip-path="url(#clip0_28_2452)">
<path d="M18.4249 1.89489H17.4774V0.947446C17.4774 0.696168 17.3776 0.455181 17.1999 0.277501C17.0223 0.09982 16.7813 0 16.53 0C16.2787 0 16.0377 0.09982 15.86 0.277501C15.6824 0.455181 15.5825 0.696168 15.5825 0.947446V1.89489H8.00297V0.947446C8.00297 0.696168 7.90315 0.455181 7.72547 0.277501C7.54779 0.09982 7.3068 0 7.05553 0C6.80425 0 6.56326 0.09982 6.38558 0.277501C6.2079 0.455181 6.10808 0.696168 6.10808 0.947446V1.89489H5.16063C3.9047 1.8964 2.70064 2.39598 1.81257 3.28406C0.924488 4.17213 0.424905 5.37619 0.423401 6.63212L0.423401 18.0015C0.424905 19.2574 0.924488 20.4615 1.81257 21.3495C2.70064 22.2376 3.9047 22.7372 5.16063 22.7387H18.4249C19.6808 22.7372 20.8849 22.2376 21.7729 21.3495C22.661 20.4615 23.1606 19.2574 23.1621 18.0015V6.63212C23.1606 5.37619 22.661 4.17213 21.7729 3.28406C20.8849 2.39598 19.6808 1.8964 18.4249 1.89489ZM2.31829 6.63212C2.31829 5.87829 2.61775 5.15533 3.1508 4.62229C3.68384 4.08925 4.4068 3.78979 5.16063 3.78979H18.4249C19.1787 3.78979 19.9017 4.08925 20.4347 4.62229C20.9678 5.15533 21.2672 5.87829 21.2672 6.63212V7.57957H2.31829V6.63212ZM18.4249 20.8438H5.16063C4.4068 20.8438 3.68384 20.5444 3.1508 20.0113C2.61775 19.4783 2.31829 18.7553 2.31829 18.0015V9.47446H21.2672V18.0015C21.2672 18.7553 20.9678 19.4783 20.4347 20.0113C19.9017 20.5444 19.1787 20.8438 18.4249 20.8438Z" fill="#4581FB"/>
<path d="M11.7928 15.6329C12.5776 15.6329 13.2139 14.9966 13.2139 14.2117C13.2139 13.4268 12.5776 12.7905 11.7928 12.7905C11.0079 12.7905 10.3716 13.4268 10.3716 14.2117C10.3716 14.9966 11.0079 15.6329 11.7928 15.6329Z" fill="#4581FB"/>
<path d="M7.05554 15.6329C7.84043 15.6329 8.47671 14.9966 8.47671 14.2117C8.47671 13.4268 7.84043 12.7905 7.05554 12.7905C6.27065 12.7905 5.63437 13.4268 5.63437 14.2117C5.63437 14.9966 6.27065 15.6329 7.05554 15.6329Z" fill="#4581FB"/>
<path d="M16.53 15.6329C17.3149 15.6329 17.9512 14.9966 17.9512 14.2117C17.9512 13.4268 17.3149 12.7905 16.53 12.7905C15.7451 12.7905 15.1088 13.4268 15.1088 14.2117C15.1088 14.9966 15.7451 15.6329 16.53 15.6329Z" fill="#4581FB"/>
</g>
<defs>
<clipPath id="clip0_28_2452">
<rect width="22.7387" height="22.7387" fill="white" transform="translate(0.423401)"/>
</clipPath>
</defs>
</svg>
