<svg width="23" height="23" viewBox="0 0 23 23" fill="none" xmlns="http://www.w3.org/2000/svg">
<g clip-path="url(#clip0_28_2448)">
<path d="M4.16519 21.1086C4.11272 17.1339 7.12912 13.789 11.088 13.4309L11.0871 13.4299C11.2502 13.419 11.4137 13.4145 11.5773 13.4143C15.6847 13.4098 19.0181 16.7356 19.0226 20.843V21.3167C19.0225 22.0184 18.4538 22.587 17.7521 22.5872C17.0502 22.5872 16.4808 22.0185 16.4806 21.3167V20.843C16.4805 20.6834 16.4729 20.5234 16.4572 20.3645C16.1906 17.6757 13.7944 15.7121 11.1056 15.9788H11.1017C8.63616 16.2934 6.78234 18.3567 6.70914 20.8176L6.70718 21.054V21.3167C6.70702 22.0184 6.13843 22.5871 5.43668 22.5872C4.73483 22.5872 4.16536 22.0185 4.16519 21.3167V21.1086Z" fill="#4581FB" stroke="#FAFCFE" stroke-width="0.3"/>
<path d="M11.5937 0.151855C14.6499 0.151855 17.1277 2.62892 17.1279 5.68506C17.1279 8.74137 14.65 11.2183 11.5937 11.2183C8.53883 11.2149 6.06359 8.74007 6.06052 5.68506C6.06072 2.62905 8.53771 0.152063 11.5937 0.151855ZM11.5937 2.69385C9.9416 2.69406 8.60272 4.03294 8.60251 5.68506C8.60251 7.33735 9.94148 8.67704 11.5937 8.67725C13.2461 8.67725 14.5859 7.33748 14.5859 5.68506C14.5857 4.03282 13.246 2.69385 11.5937 2.69385Z" fill="#4581FB" stroke="#FAFCFE" stroke-width="0.3"/>
</g>
<defs>
<clipPath id="clip0_28_2448">
<rect width="22.7387" height="22.7387" fill="white" transform="translate(0.225037)"/>
</clipPath>
</defs>
</svg>
